<?xml version="1.0" encoding="UTF-8" standalone="no"?>
<!-- Created with Inkscape (http://www.inkscape.org/) -->

<svg
   id="svg2"
   sodipodi:docname="jack-inout.svg"
   viewBox="0 0 500 500"
   version="1.1"
   inkscape:version="1.2.2 (b0a8486541, 2022-12-01)"
   width="500"
   height="500"
   xmlns:inkscape="http://www.inkscape.org/namespaces/inkscape"
   xmlns:sodipodi="http://sodipodi.sourceforge.net/DTD/sodipodi-0.dtd"
   xmlns:xlink="http://www.w3.org/1999/xlink"
   xmlns="http://www.w3.org/2000/svg"
   xmlns:svg="http://www.w3.org/2000/svg"
   xmlns:rdf="http://www.w3.org/1999/02/22-rdf-syntax-ns#"
   xmlns:cc="http://creativecommons.org/ns#"
   xmlns:dc="http://purl.org/dc/elements/1.1/">
  <sodipodi:namedview
     id="namedview114"
     fit-margin-left="0"
     inkscape:zoom="0.35355339"
     borderopacity="1"
     inkscape:snap-intersection-paths="true"
     inkscape:cx="441.23463"
     inkscape:cy="128.69343"
     inkscape:snap-bbox-midpoints="true"
     inkscape:object-paths="true"
     inkscape:window-maximized="1"
     inkscape:snap-bbox="true"
     showgrid="false"
     fit-margin-right="0"
     inkscape:snap-midpoints="true"
     inkscape:bbox-nodes="true"
     bordercolor="#666666"
     inkscape:window-x="0"
     guidetolerance="10"
     inkscape:snap-smooth-nodes="false"
     objecttolerance="10"
     inkscape:object-nodes="true"
     inkscape:window-y="0"
     fit-margin-bottom="0"
     inkscape:window-width="2560"
     inkscape:pageopacity="0"
     inkscape:pageshadow="2"
     pagecolor="#ffffff"
     gridtolerance="10"
     inkscape:snap-object-midpoints="true"
     inkscape:bbox-paths="true"
     inkscape:snap-bbox-edge-midpoints="true"
     inkscape:current-layer="g4012"
     inkscape:window-height="1371"
     fit-margin-top="0"
     inkscape:showpageshadow="2"
     inkscape:pagecheckerboard="0"
     inkscape:deskcolor="#d1d1d1" />
  <defs
     id="defs551">
    <linearGradient
       id="linearGradient4062">
      <stop
         id="stop4064"
         style="stop-color:#1a1a1a"
         offset="0" />
      <stop
         id="stop4066"
         style="stop-color:#1a1a1a;stop-opacity:0"
         offset="1" />
    </linearGradient>
    <linearGradient
       id="linearGradient5135">
      <stop
         id="stop5137"
         style="stop-color:#000000"
         offset="0" />
      <stop
         id="stop5139"
         style="stop-color:#313131"
         offset="0.6" />
      <stop
         id="stop5141"
         style="stop-color:#323232"
         offset="0.6" />
      <stop
         id="stop5728"
         style="stop-color:#000000"
         offset="0.9" />
      <stop
         id="stop5143"
         style="stop-color:#000000"
         offset="1" />
    </linearGradient>
    <linearGradient
       id="linearGradient4927">
      <stop
         id="stop4929"
         style="stop-color:#ffffff"
         offset="0" />
      <stop
         id="stop3875"
         style="stop-color:#57452a"
         offset=".30014" />
      <stop
         id="stop5174"
         style="stop-color:#ffffff"
         offset=".60028" />
      <stop
         id="stop4971"
         style="stop-color:#181815"
         offset=".79818" />
      <stop
         id="stop4931"
         style="stop-color:#353328"
         offset="1" />
    </linearGradient>
    <linearGradient
       id="linearGradient3170"
       y2="204"
       xlink:href="#linearGradient5135"
       gradientUnits="userSpaceOnUse"
       x2="206.27"
       gradientTransform="matrix(0.34180288,0,0,0.34180288,118.19139,91.727812)"
       y1="204"
       x1="36.265999"
       inkscape:collect="always" />
    <linearGradient
       id="linearGradient3173"
       y2="186.59"
       xlink:href="#linearGradient5135"
       gradientUnits="userSpaceOnUse"
       x2="181.94"
       gradientTransform="matrix(0.34180288,0,0,0.34180288,118.19139,91.727812)"
       y1="186.59"
       x1="16.676001"
       inkscape:collect="always" />
    <linearGradient
       id="linearGradient3180"
       y2="66.616997"
       xlink:href="#linearGradient5135"
       gradientUnits="userSpaceOnUse"
       x2="152.60001"
       gradientTransform="matrix(0.34180288,0,0,0.34180288,118.19139,91.727812)"
       y1="196.71001"
       x1="49.085999"
       inkscape:collect="always" />
    <linearGradient
       id="linearGradient3919"
       y2="55.001999"
       xlink:href="#linearGradient5135"
       gradientUnits="userSpaceOnUse"
       x2="78.938004"
       gradientTransform="matrix(0.3965591,0,0,0.3965591,38.484299,25.185495)"
       y1="134.67"
       x1="12.726"
       inkscape:collect="always" />
    <linearGradient
       id="linearGradient3159"
       y2="819.38"
       xlink:href="#linearGradient4927"
       gradientUnits="userSpaceOnUse"
       x2="1144"
       gradientTransform="matrix(0.34180288,0,0,0.34180288,118.19139,91.727812)"
       y1="992.13"
       x1="968.06"
       inkscape:collect="always" />
    <linearGradient
       id="linearGradient3162"
       y2="727.82001"
       xlink:href="#linearGradient4927"
       gradientUnits="userSpaceOnUse"
       x2="959.35999"
       gradientTransform="matrix(0.34180288,0,0,0.34180288,118.19139,91.727812)"
       y1="852.22998"
       x1="846.65997"
       inkscape:collect="always" />
    <linearGradient
       id="linearGradient3168"
       y2="684.82001"
       xlink:href="#linearGradient4927"
       spreadMethod="reflect"
       gradientUnits="userSpaceOnUse"
       x2="913.71997"
       gradientTransform="matrix(0.34180288,0,0,0.34180288,118.19139,91.727812)"
       y1="811"
       x1="811.16998"
       inkscape:collect="always" />
    <linearGradient
       id="linearGradient3171"
       y2="827.78003"
       xlink:href="#linearGradient4927"
       spreadMethod="reflect"
       gradientUnits="userSpaceOnUse"
       x2="909.28998"
       gradientTransform="matrix(0.34180288,0,0,0.34180288,118.19139,91.727812)"
       y1="914.02002"
       x1="840.47998"
       inkscape:collect="always" />
    <linearGradient
       id="linearGradient3175"
       y2="748.08002"
       xlink:href="#linearGradient5135"
       gradientUnits="userSpaceOnUse"
       x2="814.28003"
       gradientTransform="matrix(0.34180288,0,0,0.34180288,118.19139,91.727812)"
       y1="665.38"
       x1="886.40997"
       inkscape:collect="always" />
    <linearGradient
       id="linearGradient3178"
       y2="639.44"
       xlink:href="#linearGradient5135"
       gradientUnits="userSpaceOnUse"
       x2="696.72998"
       gradientTransform="matrix(0.34180288,0,0,0.34180288,125.00226,96.810767)"
       y1="573.35999"
       x1="753.31"
       inkscape:collect="always" />
    <linearGradient
       id="linearGradient3182"
       y2="932.12"
       xlink:href="#linearGradient4927"
       gradientUnits="userSpaceOnUse"
       x2="1022.8"
       gradientTransform="matrix(0.34180288,0,0,0.34180288,118.19139,91.727812)"
       y1="734.84003"
       x1="1028.5"
       inkscape:collect="always" />
    <linearGradient
       id="linearGradient3185"
       y2="903.54999"
       xlink:href="#linearGradient4927"
       spreadMethod="reflect"
       gradientUnits="userSpaceOnUse"
       x2="972.5"
       gradientTransform="matrix(0.34180288,0,0,0.34180288,118.19139,91.727812)"
       y1="978.44"
       x1="854.23999"
       inkscape:collect="always" />
    <radialGradient
       id="radialGradient3188"
       xlink:href="#linearGradient4927"
       spreadMethod="reflect"
       gradientUnits="userSpaceOnUse"
       cy="869.91998"
       cx="813.45001"
       gradientTransform="matrix(0.47036663,0.12603574,-0.1432019,0.53441829,135.51392,-174.37717)"
       r="69.786003"
       inkscape:collect="always" />
    <linearGradient
       id="linearGradient3191"
       y2="798.37"
       xlink:href="#linearGradient4927"
       spreadMethod="reflect"
       gradientUnits="userSpaceOnUse"
       x2="857.63"
       gradientTransform="matrix(0.34180288,0,0,0.34180288,118.19139,91.727812)"
       y1="898.34003"
       x1="779.72998"
       inkscape:collect="always" />
    <radialGradient
       id="radialGradient3194"
       xlink:href="#linearGradient5135"
       spreadMethod="reflect"
       gradientUnits="userSpaceOnUse"
       cy="461.03"
       cx="508.60001"
       gradientTransform="matrix(0.9837529,0,0,1.0828753,-240.10872,-312.59254)"
       r="103.16"
       inkscape:collect="always" />
    <linearGradient
       id="linearGradient3197"
       y2="371.78"
       xlink:href="#linearGradient5135"
       gradientUnits="userSpaceOnUse"
       x2="644.88"
       gradientTransform="matrix(0.34180288,0,0,0.34180288,118.19139,91.727812)"
       y1="588.31"
       x1="456.98001"
       inkscape:collect="always" />
    <radialGradient
       id="radialGradient3200"
       xlink:href="#linearGradient5135"
       spreadMethod="reflect"
       gradientUnits="userSpaceOnUse"
       cy="747.48999"
       cx="731.92999"
       gradientTransform="matrix(1.3308985,0,0,1.462859,-568.48968,-667.40904)"
       r="121.01"
       inkscape:collect="always" />
    <linearGradient
       id="linearGradient3203"
       y2="410.76001"
       xlink:href="#linearGradient5135"
       spreadMethod="reflect"
       gradientUnits="userSpaceOnUse"
       x2="627.44"
       gradientTransform="matrix(0.34180288,0,0,0.34180288,118.19139,91.727812)"
       y1="567.69"
       x1="500.57999"
       inkscape:collect="always" />
    <radialGradient
       id="radialGradient3206"
       xlink:href="#linearGradient5135"
       spreadMethod="reflect"
       gradientUnits="userSpaceOnUse"
       cy="104.27"
       cx="110.2"
       gradientTransform="matrix(0.50217093,0.09957414,-0.09185111,0.46324302,175.66675,34.483541)"
       r="108.61"
       inkscape:collect="always" />
    <linearGradient
       id="linearGradient3209"
       y2="244.62"
       xlink:href="#linearGradient5135"
       gradientUnits="userSpaceOnUse"
       x2="271.38"
       gradientTransform="matrix(0.34180288,0,0,0.34180288,118.19139,91.727812)"
       y1="244.62"
       x1="76.841003"
       inkscape:collect="always" />
    <linearGradient
       id="linearGradient3212"
       y2="221.47"
       xlink:href="#linearGradient5135"
       gradientUnits="userSpaceOnUse"
       x2="231.13"
       gradientTransform="matrix(0.34180288,0,0,0.34180288,118.19139,91.727812)"
       y1="221.47"
       x1="56.321999"
       inkscape:collect="always" />
    <radialGradient
       id="radialGradient3231"
       xlink:href="#linearGradient4062"
       gradientUnits="userSpaceOnUse"
       cy="99.890999"
       cx="976.53998"
       gradientTransform="matrix(0.69540314,0,0,0.57329408,-232.70712,99.29708)"
       r="513.62"
       inkscape:collect="always" />
  </defs>
  <g
     id="g4012">
    <path
       id="path5642"
       style="fill:url(#radialGradient3231);stroke-width:0.868733"
       d="m 27.121276,49.517828 -0.407436,41.509786 96.3772,87.116516 c -4.08304,9.96436 -3.41412,21.32739 5.29059,29.29366 7.67959,7.47979 15.24626,14.95958 22.72604,22.63918 -1.21622,-2.78863 6.20275,8.74814 8.2269,12.4055 5.93345,10.50298 12.614,20.60634 22.52624,27.77338 26.36604,22.82161 52.51489,46.18183 79.00255,68.68201 11.63233,10.12942 28.50312,-1.48553 39.57946,2.79732 28.62474,23.61215 57.25817,47.20693 85.90029,70.82778 -0.17375,-0.0521 -0.30406,-0.0782 -0.35618,-0.0782 0.30406,0.33881 11.98851,4.95178 15.66325,2.36295 10.71147,10.22499 21.03202,20.85827 31.98674,30.81395 16.08893,2.71913 36.98195,-10.20761 36.37384,-28.37281 5.72494,-11.56283 -3.54443,-19.38142 -12.78775,-23.89015 l -26.62666,-16.82735 c 1.61585,-12.90937 -10.82441,-16.96635 -19.05999,-24.16814 -25.94036,-19.4683 -52.10659,-39.05822 -78.13382,-58.58734 0.71236,-14.08215 -1.18148,-32.2126 -14.82058,-39.70977 -30.07552,-21.22314 -60.13368,-42.45496 -90.21789,-63.66941 -14.28196,-7.41898 -31.535,-8.23559 -44.46174,-18.24339 -5.58595,-2.72782 -10.75491,-6.72399 -16.18449,-10.01649 L 27.122144,49.519566 Z" />
    <path
       id="path3905"
       d="M 21.915829,17.1677 21.511,58.68791 138.32948,164.28237 169.73851,135.62375 Z"
       sodipodi:nodetypes="ccccc"
       style="color:#000000;text-indent:0;text-transform:none;fill:url(#linearGradient3919);stroke-width:0.868733"
       inkscape:connector-curvature="0" />
    <path
       id="path4284"
       style="fill:url(#linearGradient3180);stroke-width:0.868733"
       inkscape:connector-curvature="0"
       d="m 162.80082,127.02963 c -0.78956,0.007 -1.59361,0.0531 -2.40335,0.14955 -7.56814,1.04647 -14.30021,5.14585 -19.26936,10.4995 -6.35626,7.06262 -10.34053,16.48333 -9.29284,25.82742 0.63688,6.89791 4.53427,11.50029 9.41012,16.13932 0.6198,0.59371 1.28746,1.14169 1.98679,1.64494 l 1.42064,1.75172 3.4394,3.4394 1.677,1.23907 1.80514,2.2217 3.50351,3.50351 1.71974,1.26044 1.82651,2.26444 3.57831,3.56763 -1.39927,-1.73043 c 1.50274,1.75536 3.31535,3.32203 5.43688,4.71053 l 4.71053,1.87993 5.1912,0.7477 5.49022,-0.40589 5.5757,-1.53809 5.44756,-2.60629 5.13777,-3.55694 4.62505,-4.39005 3.97349,-5.05229 3.17235,-5.53296 2.24307,-5.83206 1.22839,-5.90686 0.18159,-5.77864 c -0.76271,-7.32672 -3.69072,-13.79113 -9.65596,-17.63527 l -4.30466,-2.62766 -2.63834,-1.23907 -1.63426,-1.36721 -4.22986,-2.57423 -2.57423,-1.22839 -1.61289,-1.33516 -4.15506,-2.53148 -2.02945,-0.96134 c -0.65664,-0.56381 -1.35583,-1.08548 -2.08287,-1.54878 -4.92068,-3.42593 -9.97218,-5.51593 -15.49906,-5.46893 z" />
    <path
       id="path227"
       style="fill:#000000;stroke-width:0.868733"
       inkscape:connector-curvature="0"
       d="m 193.06746,148.01822 c -5.50663,-0.69007 -10.49776,1.26591 -15.3062,3.74919 -7.34974,3.79523 -12.12403,10.16504 -15.90476,17.32513 -2.70401,5.12109 -3.40717,10.6385 -3.0549,16.31046 0.44252,7.12465 4.26288,11.23184 9.1217,16.04375 -3.67492,-3.65319 -5.21674,-8.03986 -5.92823,-12.99971 -0.8353,-5.82294 0.85583,-11.28832 3.12969,-16.57803 3.39718,-7.90295 9.05567,-13.12829 16.18275,-17.6457 4.76109,-3.01806 10.02171,-3.84909 15.54163,-3.83467 3.30831,0.009 6.0185,1.50378 8.95142,2.87333 -4.12039,-2.97767 -7.76838,-4.62252 -12.73214,-5.24462 z" />
    <path
       id="path4442"
       style="fill:#000000;stroke-width:0.868733"
       inkscape:connector-curvature="0"
       d="m 166.26706,132.85014 -1.5486,0.0441 c 0,0 -3.1674,0.59473 -4.68994,1.10616 -1.58996,0.53399 -3.12866,1.23308 -4.60151,2.03527 -1.53392,0.83542 -3.00338,1.80123 -4.38023,2.87594 -1.407,1.09816 -2.73139,2.31283 -3.9378,3.62809 -1.2223,1.33263 -2.31969,2.7842 -3.31838,4.2918 -0.98097,1.48084 -1.86769,3.03222 -2.61046,4.64572 -0.73557,1.59786 -1.35539,3.25731 -1.81408,4.95542 -0.43756,1.61993 -0.75218,3.28277 -0.88489,4.95552 -0.12715,1.60281 0.0885,4.82276 0.0885,4.82276 l 0.30972,1.46008 c -0.0236,-2.8067 0.34752,-5.72234 1.10615,-8.5836 1.52124,-5.73763 4.56042,-11.12846 8.7603,-15.70668 3.90869,-4.26096 8.89756,-7.74493 14.6451,-9.73415 0.92468,-0.32003 1.89036,-0.57947 2.87594,-0.79642 z" />
    <path
       id="path4440"
       style="fill:#000000;stroke-width:0.868733"
       inkscape:connector-curvature="0"
       d="m 174.18121,137.94092 -1.63704,0.0441 c 0,0 -3.28728,0.61781 -4.86698,1.15037 -1.65173,0.55684 -3.25141,1.2833 -4.77847,2.12379 -1.58396,0.87178 -3.09573,1.8862 -4.51298,3.00869 -1.45599,1.15315 -2.81287,2.43836 -4.07053,3.80505 -1.2727,1.3831 -2.45365,2.86012 -3.49535,4.42454 -1.02823,1.54408 -1.92858,3.17939 -2.69898,4.86699 -0.74985,1.6426 -1.38606,3.3454 -1.8583,5.08816 -0.45474,1.67813 -0.77368,3.40083 -0.9292,5.13248 -0.14903,1.65988 0,4.99973 0,4.99973 l 0.30972,1.28311 c -0.004,-2.8378 0.3703,-5.78715 1.15038,-8.67203 1.60959,-5.95265 4.8331,-11.5472 9.15905,-16.3261 4.02371,-4.44547 9.21986,-8.02596 15.17589,-10.08772 0.97932,-0.33902 2.01198,-0.60599 3.0529,-0.84066 z" />
    <path
       id="path11547-5"
       style="fill:#000000;stroke-width:0.868733"
       inkscape:connector-curvature="0"
       d="m 181.93031,143.162 -1.41586,0.0441 c 0,0 -3.37711,0.64389 -4.99973,1.1946 -1.71297,0.5814 -3.37234,1.33706 -4.95551,2.21222 -1.64669,0.91044 -3.21379,1.97463 -4.69003,3.14143 -1.51464,1.1972 -2.94222,2.51524 -4.24758,3.93779 -1.31448,1.43245 -2.50769,2.98236 -3.58387,4.6015 -1.06733,1.60577 -2.02293,3.29363 -2.83172,5.04395 -0.78491,1.69863 -1.45305,3.46034 -1.94683,5.26522 -0.47857,1.74954 -0.8105,3.54721 -0.97342,5.35365 -0.15365,1.70393 0,5.13247 0,5.13247 l 0.26547,1.2389 c 0.02,-2.92346 0.43524,-5.9278 1.2389,-8.89322 1.67405,-6.17764 4.99903,-12.00067 9.51262,-16.94636 4.19146,-4.59195 9.54564,-8.34392 15.70669,-10.53078 0.93441,-0.33156 1.92772,-0.56447 2.92016,-0.79642 z" />
    <path
       id="path4436"
       style="fill:url(#linearGradient3173);stroke-width:0.868733"
       inkscape:connector-curvature="0"
       d="m 167.32691,129.75745 c -0.85045,0.0162 -1.68004,0.0744 -2.52202,0.17698 -1.77221,0.2158 -3.52601,0.63375 -5.2209,1.1946 -1.77422,0.58714 -3.4924,1.36043 -5.13248,2.25653 -1.70862,0.93363 -3.33758,2.02484 -4.86699,3.22995 -1.56563,1.2336 -3.03066,2.60376 -4.38032,4.07053 -1.35844,1.47641 -2.60107,3.06672 -3.71661,4.73425 -1.10155,1.64668 -2.09278,3.37659 -2.92016,5.17669 -0.81255,1.7677 -1.48866,3.60689 -1.99105,5.48639 -0.48333,1.80836 -0.82596,3.66458 -0.97341,5.53062 -0.14059,1.77925 -0.12006,3.58109 0.0885,5.35365 0.19947,1.69516 0.55894,3.38293 1.10616,4.99973 0.51615,1.52506 1.18,3.01624 2.03527,4.38032 0.82958,1.32317 2.96446,3.62809 2.96446,3.62809 l 1.72557,1.28312 c -2.41682,-3.16462 -4.07349,-6.66249 -4.51307,-11.06157 -0.0834,-0.83503 -0.12572,-1.66771 -0.13266,-2.52202 0,0 -0.25328,-0.96577 -0.30972,-1.46008 -0.18239,-1.59751 -0.21566,-3.21996 -0.0885,-4.82277 0.13267,-1.67266 0.44736,-3.33559 0.8849,-4.95543 0.4587,-1.69819 1.07844,-3.35765 1.81408,-4.95542 0.7428,-1.61358 1.62949,-3.16488 2.61046,-4.64572 0.99861,-1.5076 2.09608,-2.95908 3.31838,-4.2918 1.20641,-1.31526 2.53088,-2.52993 3.93779,-3.62809 1.37695,-1.07471 2.84632,-2.04048 4.38033,-2.87594 1.47285,-0.80218 3.01163,-1.50126 4.6015,-2.03527 1.52263,-0.5114 3.09738,-0.89775 4.69003,-1.10615 0.51204,-0.067 1.5486,-0.0441 1.5486,-0.0441 2.43193,-0.53535 5.01259,-0.79235 7.61019,-0.57518 2.23577,0.1869 4.39474,0.85197 6.50403,1.76978 l -1.5043,-1.23881 c 0,0 -2.76353,-1.49831 -4.24758,-1.99105 -1.52897,-0.50766 -3.13005,-0.82427 -4.73425,-0.97342 -0.84451,-0.0786 -1.71575,-0.10461 -2.56624,-0.0885 z" />
    <path
       id="path4434"
       style="fill:url(#linearGradient3170);stroke-width:0.868733"
       inkscape:connector-curvature="0"
       d="m 177.89939,134.7961 -5.26522,0.13267 -5.39795,1.28312 c 0,0 -3.61054,1.41933 -5.30944,2.34497 -1.76717,0.9629 -3.46155,2.07488 -5.04395,3.31838 -1.63269,1.28312 -3.15297,2.71774 -4.55728,4.24758 -1.40665,1.53227 -2.69255,3.18261 -3.84935,4.91121 -1.14969,1.71792 -2.19382,3.51776 -3.05291,5.39796 -0.8395,1.83719 -1.50968,3.75735 -2.03526,5.70766 -0.50355,1.86847 -0.89184,3.77994 -1.06185,5.70766 -0.16333,1.85118 -0.16749,3.72869 0.0441,5.57492 0.19982,1.74181 0.58197,3.47388 1.15037,5.13247 0.53901,1.57275 1.24038,3.10459 2.12379,4.51298 0.84692,1.35036 3.00869,3.71661 3.00869,3.71661 l 1.76978,1.32734 c -2.49657,-3.26661 -4.20302,-6.86725 -4.64572,-11.45946 -0.0848,-0.8802 -0.13267,-1.75397 -0.13267,-2.65467 v -0.13266 c 0,0 -0.25772,-0.84622 -0.30972,-1.28312 -0.1969,-1.65494 -0.14903,-3.33984 0,-4.99973 0.15548,-1.73165 0.47442,-3.45434 0.9292,-5.13247 0.47227,-1.74277 1.10841,-3.44566 1.8583,-5.08817 0.77037,-1.6876 1.67075,-3.3229 2.69898,-4.86699 1.04179,-1.56441 2.22266,-3.04143 3.49535,-4.42454 1.25766,-1.36678 2.61454,-2.6519 4.07053,-3.80505 1.41734,-1.12249 2.92902,-2.13691 4.51298,-3.00868 1.52706,-0.84044 3.12675,-1.56694 4.77847,-2.12379 1.5797,-0.53256 3.21396,-0.93502 4.86698,-1.15038 0.54132,-0.0705 1.63704,-0.0441 1.63704,-0.0441 2.47789,-0.55863 5.08583,-0.83844 7.74293,-0.61943 2.34306,0.19312 4.57796,0.86813 6.76951,1.81408 l -1.5486,-1.28311 c 0,0 -2.84623,-1.57059 -4.38032,-2.07949 -1.57032,-0.52108 -4.86699,-0.9735 -4.86699,-0.9735 z" />
    <path
       id="path4432"
       style="fill:url(#linearGradient3212);stroke-width:0.868733"
       inkscape:connector-curvature="0"
       d="m 183.29422,139.8 c -0.90956,0.0229 -1.79923,0.1045 -2.69898,0.22124 -1.89436,0.24586 -3.76708,0.7102 -5.57492,1.32733 -1.89905,0.64829 -3.72938,1.50847 -5.48639,2.47771 -1.8266,1.00773 -3.5797,2.16332 -5.22091,3.45113 -1.69142,1.32725 -3.28138,2.79558 -4.73425,4.38024 -1.46329,1.59612 -2.78672,3.3269 -3.98209,5.13247 -1.18461,1.78924 -2.2442,3.66988 -3.14143,5.61914 -0.87403,1.89887 -1.61306,3.86925 -2.16801,5.88462 -0.53375,1.93823 -0.92867,3.92632 -1.10615,5.92884 -0.16924,1.90991 -0.16884,3.8464 0.0441,5.75188 0.1997,1.78533 0.57836,3.56224 1.15037,5.26521 0.5484,1.63261 1.2601,3.22648 2.16801,4.69003 0.8682,1.39944 3.09721,3.84936 3.09721,3.84936 l 1.76978,1.28311 c -2.55294,-3.36338 -4.29336,-7.08573 -4.73425,-11.76959 -0.0899,-0.95447 -0.1379,-1.94109 -0.13266,-2.92015 9e-5,-0.0146 -1e-4,-0.0298 0,-0.0441 0,0 -0.22099,-0.81888 -0.26547,-1.2389 -0.18023,-1.70132 -0.15365,-3.42854 0,-5.13247 0.16289,-1.80644 0.49482,-3.60411 0.97342,-5.35365 0.49371,-1.80488 1.16184,-3.56658 1.94683,-5.26522 0.80879,-1.75032 1.76431,-3.43818 2.83172,-5.04394 1.07618,-1.61915 2.26939,-3.16905 3.58387,-4.60151 1.30536,-1.42255 2.73286,-2.74059 4.24758,-3.93779 1.47615,-1.16679 3.04326,-2.23099 4.69003,-3.14142 1.58309,-0.87525 3.24246,-1.63088 4.95542,-2.21223 1.62262,-0.55073 3.30136,-0.9676 4.99973,-1.1946 0.46801,-0.0626 1.41586,-0.0441 1.41586,-0.0441 2.62879,-0.61436 5.40283,-0.9437 8.22959,-0.70791 2.42455,0.20222 4.75024,0.92207 7.035,1.90252 l -1.63704,-1.37164 c 0,0 -2.90174,-1.60941 -4.46876,-2.12379 -1.62696,-0.534 -3.3375,-0.83121 -5.04395,-0.97341 -0.90417,-0.0753 -1.83363,-0.11128 -2.74319,-0.0885 z" />
    <path
       id="path11562"
       style="fill:url(#linearGradient3209);stroke-width:0.868733"
       inkscape:connector-curvature="0"
       d="m 191.52981,144.97765 c -0.93902,0.0415 -1.85892,0.13776 -2.78742,0.26547 -1.95265,0.26865 -3.88706,0.73333 -5.75188,1.37164 -1.9609,0.67114 -3.85318,1.55694 -5.66344,2.56624 -1.89358,1.05568 -3.69846,2.28198 -5.39796,3.62809 -1.75067,1.38667 -3.39935,2.91355 -4.91121,4.55728 -1.52193,1.65468 -2.90947,3.44053 -4.15905,5.30943 -1.23334,1.84467 -2.34089,3.78299 -3.27417,5.7961 -0.9126,1.96855 -1.68621,4.01233 -2.25653,6.1058 -0.5475,2.00973 -0.92103,4.0754 -1.10616,6.15011 -0.1756,1.96846 -0.20546,3.96324 0,5.92884 0.19277,1.84406 0.56854,3.68169 1.15038,5.44217 0.55501,1.67926 1.28007,3.31969 2.21222,4.82269 0.88985,1.4348 1.9649,2.77151 3.18565,3.93779 1.20502,1.15133 2.57049,2.15315 4.02631,2.96446 1.48562,0.82785 4.73425,1.90253 4.73425,1.90253 l 1.5486,-2.78742 c 0,0 -2.88636,-0.94457 -4.20328,-1.68134 -1.31543,-0.73589 -2.54295,-1.65286 -3.62808,-2.69898 -1.10277,-1.06307 -2.07098,-2.28077 -2.87594,-3.58387 -0.83585,-1.35305 -1.49466,-2.82504 -1.99105,-4.33602 -0.52177,-1.58831 -0.84715,-3.24811 -1.01764,-4.91121 -0.18048,-1.76057 -0.16079,-3.54695 0,-5.30943 0.17032,-1.86673 0.52019,-3.72339 1.01764,-5.5307 0.51765,-1.88063 1.21179,-3.71818 2.03526,-5.4864 0.84485,-1.81417 1.84936,-3.55911 2.96447,-5.22091 1.11788,-1.66596 2.36217,-3.25418 3.71661,-4.73424 1.35244,-1.47789 2.814,-2.86586 4.38032,-4.11484 1.52871,-1.21901 3.15906,-2.3223 4.86699,-3.27417 1.62592,-0.90609 3.32707,-1.69794 5.08817,-2.30075 1.67865,-0.57459 3.41855,-1.00008 5.17669,-1.2389 1.66701,-0.22642 3.36643,-0.30422 5.04395,-0.17699 1.58639,0.12036 3.17695,0.39323 4.69003,0.8849 1.44314,0.46895 2.83346,1.13413 4.11484,1.94683 1.27417,0.80809 2.46546,1.77325 3.49534,2.87593 1.03918,1.11268 2.65468,3.71662 2.65468,3.71662 l 2.34497,-2.21232 c 0,0 -1.81401,-2.8762 -2.96447,-4.11484 -1.13986,-1.22726 -2.43844,-2.32716 -3.84935,-3.22994 -1.4282,-0.91382 -2.99053,-1.63913 -4.60151,-2.16801 -1.67083,-0.54852 -3.42332,-0.88168 -5.17669,-1.01764 -0.93441,-0.0725 -1.89262,-0.0856 -2.83172,-0.0441 z" />
    <path
       id="path299"
       style="fill:url(#radialGradient3206);stroke-width:0.868733"
       inkscape:connector-curvature="0"
       d="m 186.46509,148.98251 c -6.5055,1.93779 -11.53242,6.24202 -16.24617,10.94864 -4.91198,4.90443 -7.97461,10.95558 -9.86967,17.51712 -2.57596,8.92015 -1.60403,14.36189 2.2217,22.68696 l 16.54588,27.03496 c 83.84747,86.22954 132.68154,-31.28567 54.30448,-69.11985 l -30.17543,-9.66639 c -5.73155,-1.76231 -11.20057,-1.06385 -16.78044,0.59816 z" />
    <path
       id="path325"
       style="fill:url(#linearGradient3203);stroke-width:0.868733"
       inkscape:connector-curvature="0"
       d="m 219.12076,157.05304 c -9.11822,0.99973 -15.45737,5.21708 -22.70868,10.48907 -5.01979,3.64955 -8.87497,8.40795 -12.33687,13.49055 -7.35191,10.79401 -9.8523,19.61686 -9.31455,32.47149 0.35239,8.42489 2.2918,11.79044 8.56648,18.84195 l 85.975,74.98379 63.35147,-80.65575 -93.19765,-65.75524 c -7.34044,-4.16801 -12.21698,-4.75701 -20.33703,-3.86665 z" />
    <path
       id="path345"
       style="fill:url(#radialGradient3200);stroke-width:0.868733"
       inkscape:connector-curvature="0"
       d="m 311.47573,223.59796 c -6.04647,1.2998 -11.69488,3.85622 -16.57716,6.84683 -11.84517,7.77889 -21.11281,18.31375 -27.09925,30.12157 -6.05489,12.69739 -9.85143,28.79588 -2.64902,41.43333 3.55659,6.1105 9.45007,9.96611 16.02203,11.2692 4.87811,0.85863 14.21681,-0.61951 14.21681,-0.61951 l 48.60039,-61.96323 c 0,0 -1.89627,-14.34365 -6.36616,-19.65421 -6.67561,-7.69593 -16.84734,-9.27112 -26.14799,-7.43427 z" />
    <path
       id="path361"
       style="fill:url(#linearGradient3197);stroke-width:0.868733"
       inkscape:connector-curvature="0"
       d="m 310.62437,230.82582 c -11.81824,2.09486 -19.14948,8.25956 -27.07753,16.88729 -10.43087,11.35173 -15.5312,21.89814 -15.4452,37.24605 0.0663,11.8191 4.25393,14.84577 12.94586,22.18569 26.80387,-26.80388 36.5693,-38.47878 54.19762,-69.01299 -9.24505,-7.29727 -13.22993,-9.32498 -24.62075,-7.30613 z" />
    <path
       id="path359"
       style="fill:url(#radialGradient3194);stroke-width:0.868733"
       inkscape:connector-curvature="0"
       d="m 323.90729,234.99573 c -2.24098,-0.033 -4.493,0.24541 -6.68655,0.70498 -2.40256,0.50335 -4.75153,1.28894 -7.01771,2.23238 -2.45086,1.02041 -4.80704,2.28147 -7.06045,3.68508 -2.39544,1.49213 -4.67204,3.18538 -6.82546,5.00963 -2.23047,1.8895 -4.32724,3.94579 -6.28067,6.12048 -1.98097,2.20537 -3.818,4.5486 -5.49022,6.99634 -1.65137,2.41717 -3.1555,4.94422 -4.46485,7.5625 -1.26079,2.52114 -2.36556,5.13073 -3.24715,7.80816 -0.83155,2.5255 -1.49909,5.11745 -1.91199,7.74406 -0.38074,2.42229 -0.59124,4.8874 -0.51271,7.33819 0.0718,2.24063 0.33232,4.49577 0.89722,6.66526 0.516,1.98158 1.24594,3.93215 2.25376,5.71452 0.94249,1.66693 2.1164,3.22969 3.49282,4.56102 1.34289,1.29893 2.89731,2.40761 4.56102,3.25784 1.70941,0.8736 3.57441,1.46772 5.45825,1.8372 2.00947,0.39409 4.08583,0.48404 6.13117,0.38453 2.21179,-0.1076 4.4149,-0.50159 6.55841,-1.05742 2.31674,-0.60082 4.57327,-1.45243 6.75066,-2.44609 2.32152,-1.05942 4.55155,-2.33012 6.68655,-3.72782 2.24255,-1.46807 4.37476,-3.11284 6.39822,-4.87072 2.08304,-1.80975 4.04959,-3.76136 5.88549,-5.82138 1.85431,-2.0807 3.57718,-4.28511 5.15914,-6.57978 1.56659,-2.27235 3.00747,-4.63947 4.2726,-7.09251 1.22795,-2.38085 2.313,-4.84397 3.20441,-7.37015 0.84906,-2.40622 1.55112,-4.87455 2.02944,-7.38084 0.44855,-2.3501 0.74388,-4.74294 0.77974,-7.13525 0.0332,-2.21414 -0.10372,-4.44826 -0.52338,-6.62253 -0.38736,-2.00686 -0.96768,-3.99869 -1.82651,-5.85343 -0.80772,-1.74424 -1.83172,-3.41499 -3.08696,-4.87072 -1.21987,-1.41473 -2.66058,-2.6671 -4.24054,-3.66371 -1.62088,-1.02241 -3.4209,-1.78915 -5.26591,-2.30718 -1.96829,-0.55264 -4.03361,-0.79235 -6.07774,-0.82247 z m -4.8067,13.93969 c 1.33108,0.005 2.67674,0.14821 3.96282,0.49134 1.19798,0.31963 2.3692,0.79812 3.42871,1.44201 1.03709,0.6302 1.99174,1.42203 2.79854,2.32855 0.8279,0.93024 1.50169,2.00678 2.04013,3.1297 0.57354,1.1959 0.97341,2.4818 1.23907,3.78125 0.28846,1.41108 0.38389,2.86438 0.37385,4.30465 -0.0109,1.56025 -0.18742,3.12266 -0.46998,4.65711 -0.30188,1.63938 -0.75291,3.25453 -1.3031,4.82798 -0.57901,1.6558 -1.2925,3.26747 -2.09356,4.82798 -0.82629,1.60959 -1.76275,3.16627 -2.78785,4.6571 -1.03597,1.50656 -2.16836,2.95143 -3.38597,4.31534 -1.20563,1.35036 -2.49718,2.62948 -3.86673,3.81331 -1.32691,1.14698 -2.7273,2.21648 -4.19781,3.17235 -1.399,0.90939 -2.85769,1.74016 -4.37936,2.42472 -1.42238,0.63985 -2.89862,1.18034 -4.41143,1.55946 -1.39744,0.35024 -2.83294,0.59669 -4.2726,0.65158 -1.32725,0.0506 -2.67396,-0.0242 -3.9735,-0.29908 -1.2164,-0.25724 -2.41629,-0.6663 -3.51419,-1.24976 -1.07028,-0.56879 -2.06811,-1.30215 -2.92676,-2.15767 -0.87977,-0.87656 -1.6261,-1.90105 -2.2217,-2.99079 -0.63723,-1.16575 -1.0913,-2.4381 -1.40996,-3.72782 -0.34849,-1.41056 -0.49873,-2.87351 -0.53407,-4.32594 -0.0386,-1.58474 0.0982,-3.17791 0.35248,-4.74259 0.27454,-1.68942 0.71803,-3.35417 1.26045,-4.97757 0.575,-1.72096 1.28911,-3.39918 2.10424,-5.02024 0.84405,-1.67865 1.81174,-3.29909 2.87334,-4.84935 1.07453,-1.5691 2.25418,-3.07123 3.52488,-4.48622 1.25662,-1.39936 2.60568,-2.72191 4.03761,-3.94144 1.37972,-1.17514 2.83537,-2.27035 4.36868,-3.23646 1.44861,-0.91278 2.96307,-1.73539 4.53965,-2.40335 1.46182,-0.61938 2.97802,-1.135 4.52896,-1.47407 1.41474,-0.30929 2.86717,-0.50749 4.31535,-0.50202 z" />
    <path
       id="path395"
       style="fill:url(#linearGradient3191);stroke-width:0.868733"
       inkscape:connector-curvature="0"
       d="m 309.98151,250.63292 c -5.08148,2.17044 -9.0522,5.77994 -12.94586,9.58125 -5.07444,5.55815 -7.94204,12.14315 -9.76282,19.33365 -0.764,6.66787 -0.1679,10.42827 3.81331,15.78748 l 106.35025,87.68988 c -3.95369,-4.81365 -3.48092,-10.44651 -2.62765,-16.24617 1.9,-8.02814 6.38692,-14.7285 11.3969,-21.11716 3.91764,-4.60993 8.74727,-7.99668 13.8754,-11.08763 6.32012,-2.7465 9.89226,-3.7551 16.39646,-1.3031 L 326.20926,250.59383 c -5.40117,-2.88437 -10.70887,-1.75623 -16.23574,0.0427 z" />
    <path
       id="path425"
       style="fill:url(#radialGradient3188);stroke-width:0.868733"
       inkscape:connector-curvature="0"
       d="m 428.96314,331.60749 c -5.1826,0.52754 -9.51089,3.02041 -13.8754,5.6505 -8.63825,6.07826 -14.43747,14.54346 -18.83152,23.97963 -1.97724,4.82668 -2.42333,9.70635 -2.17904,14.83622 0.86177,4.26217 2.53843,6.30708 5.93891,8.76985 4.14403,1.57415 8.12222,1.01564 12.05975,-0.17089 l -3.98418,-3.86673 c -0.53351,-0.80418 -0.96916,-1.61446 -1.31387,-2.43541 -0.35778,-0.74783 -0.66714,-1.59273 -0.93997,-2.54217 -0.13384,-1.01216 -0.1548,-2.00113 -0.0961,-2.9801 2.5e-4,-0.0142 -3e-4,-0.0285 0,-0.0427 0.0261,-1.27886 0.21426,-2.5943 0.53407,-3.96281 0.18815,-0.58859 0.38313,-1.17236 0.58748,-1.75172 0.21105,-0.72039 0.43156,-1.43601 0.66225,-2.15767 0.78069,-2.04508 1.79506,-3.94422 2.94804,-5.75726 1.19581,-2.04787 2.58162,-3.99722 4.21918,-5.81069 1.61428,-1.90653 3.44869,-3.52246 5.40482,-4.98827 0.0774,-0.0618 0.15713,-0.12046 0.23499,-0.18159 1.28512,-1.00912 2.62418,-1.93475 4.05898,-2.72374 0.004,-0.003 0.006,-0.008 0.0107,-0.0107 0.14972,-0.0925 0.29816,-0.18597 0.44862,-0.27772 0.71487,-0.36318 1.42915,-0.67451 2.1363,-0.93997 0.036,-0.0145 0.0708,-0.0284 0.10681,-0.0427 0.38844,-0.15412 0.78361,-0.30408 1.18565,-0.43794 0.31342,-0.0641 0.62075,-0.13343 0.92928,-0.19226 0.0598,-0.0132 0.12179,-0.0196 0.18158,-0.0321 0.36677,-0.0761 0.73241,-0.13524 1.10016,-0.18158 0.10417,-0.0155 0.20599,-0.0288 0.30977,-0.0427 0.0432,-0.004 0.085,-0.007 0.12818,-0.0107 2.01442,-0.25556 3.95908,-0.18878 5.9602,0.8011 l 4.77464,2.99079 c 0.2481,-3.9669 -0.19684,-7.37858 -2.76656,-11.79218 -2.79315,-3.01832 -6.03196,-3.49595 -9.93396,-3.69576 z" />
    <path
       id="path475"
       style="fill:url(#linearGradient3185);stroke-width:0.868733"
       inkscape:connector-curvature="0"
       d="m 463.808,371.55182 c -9.8992,5.18278 -16.48767,14.22724 -21.08501,24.20376 -2.44296,5.30127 -3.64572,10.93822 -1.49543,16.33218 2.42602,6.08573 11.16582,5.39309 14.13167,3.86664 4.041,-2.07966 14.13602,-6.2335 12.42288,-5.61844 -2.01616,0.72354 -3.94474,0.90166 -5.42619,-0.63022 -1.63391,-1.68943 -1.22509,-4.08652 -0.64093,-6.21657 1.48467,-5.4129 5.18217,-9.76976 9.92354,-12.64701 2.34835,-1.42489 5.09902,-2.08756 7.15653,-0.0641 1.16732,1.14803 0.64088,5.87828 0.92928,4.33663 0.83666,-4.47198 1.67344,-8.94361 2.51012,-13.41584 0.68716,-3.67283 0.25225,-7.15045 -2.07219,-9.95481 -4.32568,-5.21926 -11.05462,-2.96637 -16.35302,-0.19226 z" />
    <path
       id="path511"
       style="fill:url(#linearGradient3182);stroke-width:0.868733"
       inkscape:connector-curvature="0"
       d="m 473.19032,407.01349 c 2.99634,-2.79723 5.03092,-6.24567 6.39092,-10.07382 1.24619,-5.22786 -0.35211,-8.64772 -6.08348,-7.19615 -6.42932,2.84501 -11.0859,8.95663 -12.40898,15.81788 -0.21378,9.1243 7.94378,4.95595 12.10145,1.45244 z" />
    <path
       id="path3898"
       style="color:#000000;text-indent:0;text-transform:none;fill:#ffffff;stroke-width:0.868733"
       inkscape:connector-curvature="0"
       d="m 307.7228,256.21887 a 1.6435554,1.6435554 0 0 0 -0.97576,2.93762 l 102.44965,81.32815 a 1.6435554,1.6435554 0 1 0 2.04395,-2.5678 L 308.77362,256.59477 a 1.6435554,1.6435554 0 0 0 -1.05794,-0.36977 z" />
    <path
       id="path4128"
       sodipodi:nodetypes="csccscccc"
       style="fill:url(#linearGradient3178);stroke-width:0.868733"
       inkscape:connector-curvature="0"
       d="m 375.1104,288.70947 c -21.49158,-0.11427 -40.0008,19.43964 -36.63707,44.10383 0.049,0.35948 0.003,0.72878 0.0107,1.08947 l 9.86967,8.12856 c -3.50907,-25.26709 14.31845,-45.51377 37.81246,-45.30007 0.55568,0.005 1.11537,0.0228 1.66632,0.0534 l -10.68107,-8.00042 c -0.674,-0.0445 -1.35696,-0.0748 -2.04013,-0.0748 z" />
    <path
       id="path4138"
       sodipodi:nodetypes="ccccc"
       style="fill:url(#linearGradient3175);stroke-width:0.868733"
       inkscape:connector-curvature="0"
       d="m 369.74163,360.18011 10.62807,8.74814 c -2.02588,-23.6165 15.33053,-46.98975 40.80351,-47.15828 l -11.48291,-8.60923 c -31.9433,0.26982 -43.20294,30.75313 -39.94867,47.01929 z" />
    <path
       id="path5191"
       style="fill:#808080;stroke-width:0.868733"
       inkscape:connector-curvature="0"
       d="m 447.50189,389.42165 c 2.22952,-5.09581 -5.99069,5.8074 -7.17886,15.43738 -1.25879,10.2024 5.91581,14.62251 14.74587,11.5333 1.2429,-0.63962 10.847,-5.22534 12.71564,-6.05837 3.52984,-2.37312 -38.71594,21.2188 -20.28317,-20.91213 z" />
    <path
       id="path461"
       style="fill:url(#linearGradient3171);stroke-width:0.868733"
       inkscape:connector-curvature="0"
       d="m 428.00753,343.49176 c -5.46468,1.81947 -9.63511,5.57248 -13.58698,9.60297 -4.05533,4.49091 -6.59516,9.77845 -8.41698,15.47734 -1.02336,4.37928 -0.65405,8.24019 1.81583,11.96332 l 35.32093,34.36011 c -3.30596,-4.25913 -2.62227,-9.17555 -1.73034,-14.15252 1.89948,-7.10693 5.95438,-13.08485 10.43609,-18.78895 4.50724,-5.30831 10.01822,-9.14515 16.33217,-11.93118 3.53479,-1.23507 6.62635,-1.05933 10.07296,0.12819 l -41.63402,-26.31652 c -2.86195,-1.41569 -5.61479,-0.95457 -8.60923,-0.34181 z" />
    <path
       id="path3866"
       style="fill:url(#linearGradient3168);stroke-width:0.868733"
       inkscape:connector-curvature="0"
       d="m 425.63589,331.60749 c -13.92752,-0.0483 -24.96564,15.73015 -29.11731,27.32338 4.83154,-8.74466 16.52069,-22.75124 28.85061,-26.37211 2.96915,-0.91539 1.28685,-0.99965 0.26704,-0.95066 z" />
    <path
       id="path3887"
       style="fill:#808080;stroke-width:0.868733"
       inkscape:connector-curvature="0"
       d="m 310.19869,237.93205 c -18.61781,4.14863 -25.34093,16.12194 -30.12157,29.37359 7.08278,-13.85803 17.1401,-23.62692 30.12157,-29.37359 z" />
    <path
       id="path3890"
       style="fill:#808080;stroke-width:0.868733"
       inkscape:connector-curvature="0"
       d="m 306.11565,225.11824 c -23.68339,5.00712 -32.23694,19.45788 -38.31806,35.45211 9.01049,-16.72571 21.80432,-28.51615 38.31806,-35.45211 z" />
    <path
       id="path3904"
       style="color:#000000;text-indent:0;text-transform:none;fill:#ffffff;stroke-width:0.868733"
       inkscape:connector-curvature="0"
       d="m 420.33662,348.20029 a 1.6566732,1.6566732 0 0 0 -0.90079,2.99217 l 33.6799,25.26275 a 1.6566732,1.6566732 0 1 0 1.98783,-2.6505 l -33.67989,-25.26275 a 1.6566732,1.6566732 0 0 0 -1.08714,-0.34166 z" />
    <path
       id="path3915"
       style="fill:url(#linearGradient3162);stroke-width:0.868733"
       inkscape:connector-curvature="0"
       d="m 428.00753,343.49176 c -8.19962,1.30449 -16.10544,11.71486 -19.31714,19.90353 3.44974,-5.54512 14.80581,-14.94133 22.24216,-20.08597 1.96977,-0.66679 -2.24897,0.14707 -2.92554,0.18279 z" />
    <path
       id="path3917"
       style="fill:url(#linearGradient3159);stroke-width:0.868733"
       inkscape:connector-curvature="0"
       d="m 469.48083,369.16281 c -13.74509,-0.44736 -22.85115,13.89798 -25.4808,25.22191 3.82173,-3.6028 14.45745,-21.00161 25.24711,-24.34449 2.59829,-0.84499 1.12622,-0.92277 0.23373,-0.87751 z" />
  </g>
  <metadata
     id="metadata115">
    <rdf:RDF>
      <cc:Work>
        <dc:format>image/svg+xml</dc:format>
        <dc:type
           rdf:resource="http://purl.org/dc/dcmitype/StillImage" />
        <cc:license
           rdf:resource="http://creativecommons.org/publicdomain/zero/1.0/" />
        <dc:publisher>
          <cc:Agent
             rdf:about="http://openclipart.org/">
            <dc:title>Openclipart</dc:title>
          </cc:Agent>
        </dc:publisher>
      </cc:Work>
      <cc:License
         rdf:about="http://creativecommons.org/publicdomain/zero/1.0/">
        <cc:permits
           rdf:resource="http://creativecommons.org/ns#Reproduction" />
        <cc:permits
           rdf:resource="http://creativecommons.org/ns#Distribution" />
        <cc:permits
           rdf:resource="http://creativecommons.org/ns#DerivativeWorks" />
      </cc:License>
    </rdf:RDF>
  </metadata>
</svg>
